<svg xmlns="http://www.w3.org/2000/svg" viewBox="2.10897 7.77459 15.76 4.455">
	<path d="M 2.296 7.833 L 4.991 10.319 C 5.009 10.334 5.029 10.317 5.029 10.298 V 7.908 C 5.028 7.821 5.099 7.791 5.159 7.789 H 5.79 C 5.877 7.789 5.912 7.836 5.914 7.896 V 12.124 C 5.913 12.19 5.828 12.27 5.753 12.205 L 3.06 9.765 C 3.029 9.736 3.002 9.755 3.002 9.809 V 12.082 C 3.002 12.156 2.93 12.229 2.865 12.229 H 2.228 C 2.162 12.229 2.11 12.163 2.109 12.092 V 7.926 C 2.107 7.808 2.198 7.749 2.293 7.829 Z M 6.482 7.786 H 9.396 C 9.476 7.785 9.523 7.821 9.525 7.896 V 8.519 C 9.524 8.6 9.469 8.647 9.401 8.647 H 6.456 C 6.382 8.646 6.339 8.597 6.338 8.512 V 7.931 C 6.338 7.847 6.382 7.786 6.477 7.786 Z M 6.476 9.564 H 9.164 C 9.251 9.564 9.297 9.627 9.298 9.688 V 10.294 C 9.299 10.38 9.24 10.433 9.164 10.434 H 6.476 C 6.395 10.434 6.338 10.356 6.337 10.284 V 9.694 C 6.339 9.62 6.396 9.564 6.471 9.564 Z M 6.494 11.356 H 9.378 C 9.463 11.357 9.528 11.421 9.529 11.492 V 12.066 C 9.528 12.145 9.494 12.224 9.389 12.225 H 6.502 C 6.404 12.224 6.344 12.161 6.341 12.068 V 11.486 C 6.341 11.402 6.409 11.354 6.49 11.356 Z M 9.988 7.791 H 10.774 C 10.833 7.793 10.874 7.826 10.906 7.872 L 11.885 9.217 C 11.901 9.237 11.927 9.237 11.942 9.218 L 12.955 7.845 C 12.984 7.814 13.021 7.785 13.07 7.785 H 13.85 C 13.965 7.782 14.028 7.864 13.958 7.951 L 12.471 9.966 C 12.446 9.997 12.447 10.025 12.471 10.052 L 13.953 12.035 C 14.006 12.111 13.97 12.223 13.858 12.224 H 13.049 C 12.987 12.224 12.97 12.185 12.932 12.14 L 11.937 10.801 C 11.92 10.776 11.899 10.777 11.885 10.801 L 10.913 12.142 C 10.879 12.189 10.844 12.225 10.783 12.226 H 9.993 C 9.904 12.225 9.822 12.105 9.904 12.015 L 11.378 10.023 C 11.388 10.01 11.387 9.991 11.378 9.979 L 9.891 7.967 C 9.819 7.876 9.888 7.79 9.986 7.791 Z M 15.875 7.897 L 17.85 12.01 C 17.892 12.098 17.859 12.225 17.751 12.225 H 17.058 C 16.985 12.224 16.959 12.169 16.922 12.111 L 16.58 11.425 C 16.573 11.412 16.56 11.397 16.548 11.397 H 14.065 C 13.976 11.394 13.916 11.279 13.959 11.214 L 15.524 7.897 C 15.602 7.738 15.798 7.731 15.873 7.893 Z M 15.724 9.594 L 16.158 10.496 C 16.167 10.515 16.16 10.54 16.136 10.54 H 15.26 C 15.243 10.54 15.222 10.523 15.237 10.497 L 15.667 9.595 C 15.681 9.569 15.712 9.571 15.724 9.594 Z" fill="#000000" fill-rule="evenodd"/>
</svg>