<svg xmlns="http://www.w3.org/2000/svg" viewBox="1.76789 7.79928 16.48 4.403">
	<path d="M 1.77 9 V 12 Q 1.77 12.2 1.97 12.2 H 2.54 Q 2.71 12.2 2.71 12 V 9.994 Z M 2.451 7.808 L 5.952 11.534 Q 6.025 12.26 5.288 12.197 L 1.77 8.457 Q 1.73 7.728 2.449 7.807 Z M 5.938 10.998 V 8 Q 5.936 7.809 5.761 7.808 H 5.186 Q 5.012 7.807 5.012 8.004 V 10.02 Z M 6.672 7.81 H 9.654 Q 9.812 7.811 9.814 7.97 V 8.583 Q 9.815 8.743 9.671 8.743 H 6.651 Q 6.501 8.743 6.501 8.577 V 7.97 Q 6.503 7.811 6.667 7.81 Z M 6.679 9.523 H 9.14 Q 9.305 9.525 9.307 9.694 V 10.286 Q 9.308 10.473 9.142 10.476 H 6.654 Q 6.498 10.475 6.496 10.297 V 9.696 Q 6.496 9.523 6.674 9.523 Z M 6.669 11.256 H 9.67 Q 9.821 11.259 9.821 11.412 V 12.026 Q 9.82 12.19 9.671 12.193 H 6.658 Q 6.497 12.186 6.493 12.015 V 11.419 Q 6.497 11.254 6.663 11.254 Z M 11.25 7.808 L 12.905 9.986 L 11.241 12.194 H 10.385 C 10.234 12.198 10.197 12.073 10.24 11.973 L 11.724 9.998 L 10.247 8.03 C 10.203 7.962 10.234 7.799 10.389 7.805 Z M 12.514 8.917 L 13.377 7.802 H 14.252 C 14.382 7.806 14.426 7.941 14.375 8.021 L 13.12 9.712 Z M 13.114 10.269 L 14.376 11.955 C 14.442 12.066 14.381 12.195 14.262 12.193 H 13.375 L 12.513 11.046 M 14.057 10.938 L 15.172 8.671 L 15.707 9.667 L 14.666 11.734 Z M 16.15 7.806 C 16.222 7.804 16.249 7.86 16.262 7.889 L 18.239 11.951 C 18.277 12.083 18.19 12.188 18.091 12.193 H 17.383 C 17.314 12.188 17.284 12.149 17.253 12.099 L 17.051 11.683 C 17.015 11.617 16.986 11.573 16.893 11.572 H 15.398 C 15.276 11.562 15.215 11.403 15.264 11.32 L 15.612 10.625 H 16.375 C 16.462 10.626 16.519 10.53 16.478 10.45 L 15.365 8.226 L 15.514 7.894 C 15.548 7.829 15.586 7.804 15.663 7.806 Z" fill="#000000"/>
</svg>